<svg width="32" height="32" viewBox="0 0 32 32" fill="none" xmlns="http://www.w3.org/2000/svg">
<g id="carbon:add">
<path id="Vector" d="M18 15C17.4477 15 17 14.5523 17 14V9C17 8.44772 16.5523 8 16 8C15.4477 8 15 8.44772 15 9V14C15 14.5523 14.5523 15 14 15H9C8.44772 15 8 15.4477 8 16C8 16.5523 8.44772 17 9 17H14C14.5523 17 15 17.4477 15 18V23C15 23.5523 15.4477 24 16 24C16.5523 24 17 23.5523 17 23V18C17 17.4477 17.4477 17 18 17H23C23.5523 17 24 16.5523 24 16C24 15.4477 23.5523 15 23 15H18Z" fill="white"/>
<rect x="0.5" y="0.5" width="31" height="31" rx="15.5" stroke="white"/>
</g>
</svg>
